<?xml version="1.0" encoding="utf-8"?>
<!-- Generator: Adobe Illustrator 19.1.0, SVG Export Plug-In . SVG Version: 6.00 Build 0)  -->
<svg version="1.1" xmlns="http://www.w3.org/2000/svg" xmlns:xlink="http://www.w3.org/1999/xlink" x="0px" y="0px"
	 viewBox="0 0 512 512" enable-background="new 0 0 512 512" xml:space="preserve">
<g id="source" display="none">
	<path display="inline" d="M442,454.4H69.2c-6.6,0-12-5.4-12-12V69.6c0-6.6,5.4-12,12-12H442c6.6,0,12,5.4,12,12v372.8
		C454,449,448.6,454.4,442,454.4z"/>
	<path display="inline" d="M442,454.4H69.2c-6.6,0-12-5.4-12-12V69.6c0-6.6,5.4-12,12-12H442c6.6,0,12,5.4,12,12v372.8
		C454,449,448.6,454.4,442,454.4z"/>
	<rect x="-131.6" y="250.3" display="inline" fill="#0098E9" width="775.2" height="11.5"/>
	<rect x="-131.6" y="33.3" display="inline" fill="#0098E9" width="775.2" height="11.5"/>
	<text transform="matrix(1 0 0 1 101.9116 319.8447)" display="inline"><tspan x="0" y="0" fill="#FFFFFF" font-family="'HelveticaNeue-Medium'" font-size="283.3985px" letter-spacing="-5">2</tspan><tspan x="151.9" y="0" fill="#FFFFFF" font-family="'HelveticaNeue-Medium'" font-size="283.3985px" letter-spacing="11">5</tspan></text>
	<g display="inline">
		
			<text transform="matrix(1 0 0 1 109.522 406.3525)" fill="#FFFFFF" font-family="'HelveticaNeue-Medium'" font-size="50.6939px" letter-spacing="13">ENTRIES</text>
	</g>
	<path display="inline" d="M66.6,290h-24c-6.6,0-12-5.4-12-12v-44c0-6.6,5.4-12,12-12h24c6.6,0,12,5.4,12,12v44
		C78.6,284.6,73.2,290,66.6,290z"/>
	<path display="inline" d="M468.6,290h-24c-6.6,0-12-5.4-12-12v-44c0-6.6,5.4-12,12-12h24c6.6,0,12,5.4,12,12v44
		C480.6,284.6,475.2,290,468.6,290z"/>
	<g display="inline">
		<path fill="#0098E9" d="M442,57.6c6.6,0,12,5.4,12,12v372.8c0,6.6-5.4,12-12,12H69.2c-6.6,0-12-5.4-12-12V69.6c0-6.6,5.4-12,12-12
			H442 M442,48.6H69.2c-11.6,0-21,9.4-21,21v372.8c0,11.6,9.4,21,21,21H442c11.6,0,21-9.4,21-21V69.6C463,58,453.6,48.6,442,48.6
			L442,48.6z"/>
	</g>
</g>
<g id="icon">
	<path d="M481,45.6c0-7.5-6.3-13.6-13.8-13.6H44c-7.5,0-13,6.1-13,13.6V61h450V45.6z"/>
	<path fill="none" d="M183.1,263h201.9c0-1,0-0.8,0-1c0-4.4-0.4-9-1.3-13H202.9c-1.7,2-3.5,2.7-5.2,3.9
		C192.8,256.4,187.9,260,183.1,263z"/>
	<path d="M403.5,313c-6.3,7.8-14.4,14.3-24.3,19.3c-9.9,5-21.7,7.6-35.4,7.6c-10.9,0-21.1-1.4-30.4-4.3c-9.3-2.9-17.5-7.2-24.6-13
		s-12.7-12.6-16.9-21.1c-4.2-8.5-6.5-19.4-6.9-29.4h36.7c1.1,12,5.3,21.3,12.5,27.8c7.3,6.5,16.9,9.6,29,9.6
		c7.7,0,14.3-1.4,19.6-3.9c5.4-2.6,9.7-6.2,13-10.7c3.3-4.5,5.7-9.6,7.1-15.6c1.3-5.8,2-12.3,2.1-18.3H183.1c-1.6,1-3.1,1.8-4.7,2.8
		c-6.4,4.1-12.4,8.1-17.9,12.1c-5.5,4.1-10.2,8.5-14.3,12.9c-4.1,4.4-6.9,9.2-8.4,14.2H246v32H93.7c0.2-19,4.7-34.6,13.5-48.5
		c6-9.5,13.4-18.5,22.3-25.5H31v204.4c0,7.5,5.6,13.6,13.1,13.6h423.2c7.5,0,13.6-6.1,13.6-13.6V261h-59.4c-0.2,8-1.6,17.1-4.3,26.1
		C414.4,296.7,409.8,305.2,403.5,313z M125,427H93v-42h30v8h-21v9h20v6h-20v12h23V427z M179,427h-8.1l-18.7-30H152v30h-6v-42h6.7
		l18.8,31h0.5v-31h7V427z M232,393h-13v34h-9v-34h-12v-8h34V393z M278.1,427c-0.5,0-0.9-2-0.9-3c-0.1-1.1-0.1-2.2-0.1-3.2
		c0-1.9-0.1-3.5-0.3-4.9c-0.2-1.4-0.7-2.5-1.3-3.4c-0.6-0.9-1.4-2-2.5-2.4c-1.1-0.4-2.4-1.1-4.1-1.1H258v18h-6v-42h18.7
		c4.5,0,7.9,1.3,10.2,3.3c2.3,2,3.4,4.9,3.4,8.3c0,2-0.3,3.7-0.9,4.9c-0.6,1.3-1.2,2.4-2,3.2c-0.8,0.8-1.8,1.4-2.5,1.7
		c-0.7,0.3-1.9,0.6-1.9,0.7v0.1c0,0.1,1.5,0.3,2.2,0.6c0.7,0.3,1.5,0.8,2.1,1.5c0.6,0.7,1.2,1.5,1.6,2.6c0.4,1.1,0.6,2.4,0.6,4
		c0,2.4,0.2,4.7,0.6,6.7c0.4,2,0.9,4.3,1.7,4.3H278.1z M313,427h-7v-42h7V427z M367,427h-29v-42h29v8h-23v9h21v6h-21v12h23V427z
		 M418.6,399h-7.2c-0.2-4-1.1-5.1-2.7-6.2c-1.6-1.1-3.7-1.9-6.2-1.9c-0.8,0-1.7-0.1-2.6,0.1c-0.9,0.2-1.7,0.4-2.4,0.8
		c-0.7,0.4-1.3,0.9-1.8,1.6c-0.5,0.7-0.7,1.5-0.7,2.6c0,1.5,0.5,2.6,1.4,3.4c0.9,0.8,2.1,1.4,3.5,1.9c0.2,0,0.8,0.2,1.8,0.5
		c1.1,0.3,2.2,0.6,3.5,0.9c1.3,0.3,2.6,0.7,3.8,1c1.2,0.3,2.1,0.6,2.7,0.7c1.3,0.4,2.5,1,3.5,1.7c1,0.7,1.8,1.6,2.5,2.5
		c0.7,0.9,1.2,1.9,1.5,3c0.3,1.1,0.5,2.1,0.5,3.2c0,2.3-0.5,4.3-1.4,5.9c-0.9,1.6-2.2,3-3.7,4c-1.5,1-3.3,1.8-5.2,2.3
		c-2,0.5-4,0.7-6,0.7c-2.3,0-4.5-0.3-6.6-0.9c-2.1-0.6-3.9-1.5-5.4-2.6c-1.5-1.2-2.8-2.8-3.7-4.6c-0.9-1.9-1.4-3.6-1.4-6.6h7.2
		c0,1,0.3,3,0.8,4.1c0.5,1.1,1.3,2,2.2,2.8c1,0.7,2.1,1.2,3.3,1.6c1.2,0.3,2.6,0.5,4.1,0.5c1.6,0,2.9-0.2,4-0.5
		c1.1-0.4,2-0.8,2.7-1.4c0.7-0.6,1.2-1.2,1.5-2c0.3-0.7,0.5-1.5,0.5-2.3c0-1.6-0.4-2.7-1.1-3.5c-0.7-0.7-1.5-1.3-2.3-1.6
		c-1.5-0.5-3.2-1-5.1-1.5c-1.9-0.5-4.3-1.1-7.2-1.9c-1.8-0.5-3.2-1.1-4.4-1.8c-1.2-0.7-2.1-1.6-2.8-2.5c-0.7-0.9-1.2-1.9-1.5-2.9
		c-0.3-1-0.4-2.1-0.4-3.2c0-2.1,0.4-3.9,1.3-5.4c0.9-1.5,2-2.8,3.4-3.8c1.4-1,3-1.7,4.8-2.2c1.8-0.5,3.6-0.7,5.5-0.7
		c2.1,0,4.2,0.3,6.1,0.8c1.9,0.6,3.6,1.4,5,2.5c1.4,1.1,2.6,3.1,3.4,4.7C418.2,394.4,418.6,395,418.6,399z"/>
	<path d="M274.9,392.7c-0.7-0.5-1.4-1-2.3-1.2c-0.9-0.2-1.8-0.5-2.7-0.5H258v13h12.1c2.3,0,4-0.3,5.2-1.4c1.2-1.1,1.8-2.6,1.8-4.8
		c0-1.3-0.2-2.3-0.6-3.1C276.1,393.8,275.6,393.2,274.9,392.7z"/>
	<path d="M510.9,81.5c1.1-6.1-5.1-10.7-13.7-10.7L15.6,71.4C7,71.5,0.6,76,1.8,82.1L30.2,249h117.4c5.6-4,11.5-6.8,17.7-10.1
		c7.7-4.1,14.8-8.5,21.2-13.2c6.5-4.7,11.8-9.8,16-15.3c4.2-5.5,6.2-11.9,6.1-19c-0.1-3.3-0.8-6.9-2-10.6c-1.2-3.8-3.4-7.3-6.5-10.5
		c-3.1-3.2-7.4-5.9-12.8-8.1c-5.4-2.2-12.4-3.3-20.9-3.3c-7.8,0-14.3,1.2-19.2,3.6c-4.9,2.4-8.8,5.6-11.4,9.7
		c-2.7,4.1-4.4,9-5.3,14.6c-0.9,5.6-1.1,11.6-0.6,18.1l-38,0c-1.4-10.2-1-19.6,1.4-28.2c2.4-8.7,6.8-16.1,13.1-22.5
		c6.4-6.3,14.7-11.3,24.7-14.9c10.1-3.6,22.1-5.4,35.9-5.4c15,0,27.7,1.8,38,5.5c10.2,3.7,18.5,8.3,24.8,13.9
		c6.3,5.6,10.7,11.7,13.3,18.3c2.6,6.6,3.9,12.8,4,18.8c0.1,7.4-1.3,14-4,20c-2.8,6-6.5,11.4-11.2,16.4c-4.7,5-9.9,9.5-15.8,13.7
		c-4.3,3.1-8.6,6.6-13.1,8.6h180.8c-0.2-1-0.5-2.7-0.9-4c-1.3-4.6-3.5-8.7-6.6-12.2c-3.2-3.5-7.5-6.3-12.9-8.4
		c-5.4-2.1-11.9-3.1-19.3-3.1c-7.9,0-15.4,1.2-22.4,3.6c-7,2.4-12.1,6.8-15.4,13.3l-37,0L295.9,137l127-0.1l-3.2,26.9l-95.1,0.1
		l-14.1,47l0.6,0.6c5.3-4.6,11.9-8,20-10.4c8.1-2.4,16-3.5,23.8-3.5c11.6,0,21.9,1.5,30.8,4.6c8.8,3.1,16,7.4,21.6,12.9
		c5.5,5.5,9.4,11.9,11.6,19.5c1.3,4.6,2,9.4,2.1,14.4h60L510.9,81.5z"/>
	<path d="M13.9,218C6.4,218,1,223.6,1,231.1v50c0,7.5,5.4,13,12.9,13H20v-76H13.9z"/>
	<path d="M497.6,218H490v76h7.6c7.5,0,14.4-5.5,14.4-13v-50C512,223.6,505.1,218,497.6,218z"/>
</g>
</svg>
